<svg width="24" height="25" viewBox="0 0 24 25" fill="none" xmlns="http://www.w3.org/2000/svg">
<g clip-path="url(#clip0_4224_72)">
<path d="M17.1814 6.34856L17.1814 6.34802C17.1765 5.19915 16.3154 4.24731 15.2375 4.24731H4.54083C3.45854 4.24731 2.59692 5.19897 2.59692 6.34856V23.0238C2.59692 24.1733 3.45854 25.125 4.54083 25.125H15.2375C16.3198 25.125 17.1814 24.1733 17.1814 23.0238L17.1814 6.34856ZM15.6544 23.0186C15.6544 23.2872 15.4558 23.4875 15.2328 23.4875H4.53612C4.31314 23.4875 4.1145 23.2872 4.1145 23.0186V6.34856C4.1145 6.07996 4.31314 5.87966 4.53612 5.87966H15.2328C15.4558 5.87966 15.6544 6.07996 15.6544 6.34856V23.0186Z" fill="white" stroke="white" stroke-width="0.25"/>
<path d="M19.3277 -0.125H8.63104C7.54875 -0.125 6.68713 0.826656 6.68713 1.97624C6.68713 2.4193 7.01627 2.79242 7.44828 2.79242C7.88029 2.79242 8.20943 2.4193 8.20943 1.97624C8.20943 1.70765 8.40806 1.50735 8.63104 1.50735H19.3277C19.5507 1.50735 19.7493 1.70765 19.7493 1.97624V18.6514C19.7493 18.92 19.5507 19.1203 19.3277 19.1203C18.8957 19.1203 18.5666 19.4935 18.5666 19.9365C18.5666 20.3796 18.8957 20.7527 19.3277 20.7527C20.41 20.7527 21.2716 19.801 21.2716 18.6514V1.97624C21.2716 0.826656 20.41 -0.125 19.3277 -0.125Z" fill="white" stroke="white" stroke-width="0.25"/>
</g>
<defs>
<clipPath id="clip0_4224_72">
<rect width="23.0096" height="25" fill="white" transform="translate(0.429443)"/>
</clipPath>
</defs>
</svg>
