<svg width="25" height="25" viewBox="0 0 25 25" fill="none" xmlns="http://www.w3.org/2000/svg">
<path d="M24.6807 21.1277L19.5038 15.9295C20.8349 14.4018 21.5642 12.4797 21.5642 10.4787C21.5642 5.80364 17.6245 2 12.7821 2C7.93973 2 4 5.80364 4 10.4787C4 15.1538 7.93973 18.9575 12.7821 18.9575C14.6 18.9575 16.3324 18.4281 17.8135 17.4232L23.0297 22.6609C23.2477 22.8795 23.5409 23 23.8552 23C24.1526 23 24.4348 22.8905 24.649 22.6914C25.1042 22.2686 25.1187 21.5675 24.6807 21.1277ZM12.7821 4.21185C16.3614 4.21185 19.2732 7.0231 19.2732 10.4787C19.2732 13.9344 16.3614 16.7456 12.7821 16.7456C9.20282 16.7456 6.29098 13.9344 6.29098 10.4787C6.29098 7.0231 9.20282 4.21185 12.7821 4.21185Z" fill="white"/>
</svg>
