<svg width="97" height="97" viewBox="0 0 97 97" fill="none" xmlns="http://www.w3.org/2000/svg">
<g filter="url(#filter0_d_16_194)">
<rect x="30" y="26" width="37" height="37" rx="9" fill="white"/>
</g>
<path fill-rule="evenodd" clip-rule="evenodd" d="M56.7694 37.5948C55.5729 38.0349 40.8266 43.7001 40.6094 43.803C39.8877 44.1451 39.8033 44.5969 40.4041 44.9025C40.4621 44.932 41.4603 45.2512 42.6222 45.6119L44.7348 46.2675L49.5319 43.2667C52.1702 41.6162 54.3821 40.2473 54.447 40.2247C54.6099 40.1679 54.7501 40.1732 54.8156 40.2386C54.8614 40.2845 54.8633 40.3074 54.8268 40.3748C54.8028 40.4193 53.0507 42.0104 50.9334 43.9105C48.8161 45.8107 47.0781 47.3802 47.0711 47.3984C47.0642 47.4166 46.9926 48.3652 46.912 49.5065L46.7655 51.5816L46.9247 51.5601C47.0122 51.5483 47.1508 51.5031 47.2327 51.4597C47.3146 51.4163 47.8658 50.917 48.4577 50.3501C49.0495 49.7832 49.5543 49.3116 49.5793 49.3019C49.6044 49.2923 50.5469 49.9599 51.6738 50.7855C52.8006 51.6111 53.8109 52.3274 53.9188 52.3773C54.2019 52.5081 54.5208 52.521 54.7279 52.4102C54.9129 52.3112 55.0937 52.0653 55.1698 51.8093C55.1992 51.7102 55.8434 48.7335 56.6014 45.1944C57.8634 39.302 57.9796 38.7315 57.98 38.4257C57.9805 38.1368 57.9684 38.068 57.891 37.9159C57.8364 37.8087 57.7433 37.6992 57.6524 37.6353C57.4443 37.4889 57.0999 37.4732 56.7694 37.5948Z" fill="#4790E4"/>
<defs>
<filter id="filter0_d_16_194" x="0" y="0" width="97" height="97" filterUnits="userSpaceOnUse" color-interpolation-filters="sRGB">
<feFlood flood-opacity="0" result="BackgroundImageFix"/>
<feColorMatrix in="SourceAlpha" type="matrix" values="0 0 0 0 0 0 0 0 0 0 0 0 0 0 0 0 0 0 127 0" result="hardAlpha"/>
<feOffset dy="4"/>
<feGaussianBlur stdDeviation="15"/>
<feColorMatrix type="matrix" values="0 0 0 0 0.905551 0 0 0 0 0.908439 0 0 0 0 0.925764 0 0 0 1 0"/>
<feBlend mode="normal" in2="BackgroundImageFix" result="effect1_dropShadow_16_194"/>
<feBlend mode="normal" in="SourceGraphic" in2="effect1_dropShadow_16_194" result="shape"/>
</filter>
</defs>
</svg>
