<svg width="95" height="97" viewBox="0 0 95 97" fill="none" xmlns="http://www.w3.org/2000/svg">
<g filter="url(#filter0_d_4224_86)">
<rect x="30.4174" y="26" width="34.0543" height="37" rx="9" fill="white"/>
</g>
<path fill-rule="evenodd" clip-rule="evenodd" d="M53.2014 38.0889C52.1878 38.5699 39.6961 44.7605 39.5121 44.873C38.9007 45.2468 38.8293 45.7405 39.3382 46.0745C39.3874 46.1067 40.2329 46.4555 41.2171 46.8496L43.0068 47.5661L47.0704 44.2869C49.3054 42.4833 51.179 40.9874 51.2341 40.9627C51.3721 40.9007 51.4908 40.9065 51.5463 40.978C51.5851 41.0281 51.5867 41.0532 51.5558 41.1267C51.5354 41.1754 50.0513 42.9141 48.2577 44.9905C46.4641 47.0668 44.9918 48.7819 44.9859 48.8018C44.98 48.8217 44.9193 49.8583 44.8511 51.1055L44.727 53.373L44.8618 53.3495C44.936 53.3366 45.0534 53.2873 45.1228 53.2398C45.1922 53.1924 45.6591 52.6468 46.1605 52.0273C46.6618 51.4079 47.0894 50.8924 47.1106 50.8819C47.1318 50.8714 47.9302 51.601 48.8848 52.5031C49.8394 53.4053 50.6953 54.188 50.7867 54.2425C51.0264 54.3854 51.2966 54.3996 51.472 54.2785C51.6287 54.1703 51.7819 53.9017 51.8463 53.6219C51.8713 53.5136 52.417 50.2608 53.0591 46.3934C54.1282 39.9545 54.2266 39.3311 54.2269 38.9969C54.2273 38.6811 54.2171 38.606 54.1515 38.4399C54.1053 38.3227 54.0264 38.203 53.9494 38.1331C53.7731 37.9732 53.4814 37.956 53.2014 38.0889Z" fill="#3F414C"/>
<defs>
<filter id="filter0_d_4224_86" x="0.417389" y="0" width="94.0543" height="97" filterUnits="userSpaceOnUse" color-interpolation-filters="sRGB">
<feFlood flood-opacity="0" result="BackgroundImageFix"/>
<feColorMatrix in="SourceAlpha" type="matrix" values="0 0 0 0 0 0 0 0 0 0 0 0 0 0 0 0 0 0 127 0" result="hardAlpha"/>
<feOffset dy="4"/>
<feGaussianBlur stdDeviation="15"/>
<feColorMatrix type="matrix" values="0 0 0 0 0.905551 0 0 0 0 0.908439 0 0 0 0 0.925764 0 0 0 1 0"/>
<feBlend mode="normal" in2="BackgroundImageFix" result="effect1_dropShadow_4224_86"/>
<feBlend mode="normal" in="SourceGraphic" in2="effect1_dropShadow_4224_86" result="shape"/>
</filter>
</defs>
</svg>
