<svg width="97" height="97" viewBox="0 0 97 97" fill="none" xmlns="http://www.w3.org/2000/svg">
<g filter="url(#filter0_d_16_189)">
<rect x="30" y="26" width="37" height="37" rx="9" fill="white"/>
</g>
<g clip-path="url(#clip0_16_189)">
<path d="M57.894 49.5999C57.8698 49.5477 57.8472 49.5044 57.8262 49.4697C57.4792 48.8447 56.8161 48.0777 55.8373 47.1682L55.8166 47.1474L55.8063 47.1372L55.7958 47.1267H55.7853C55.341 46.7032 55.0597 46.4185 54.9419 46.2727C54.7264 45.995 54.6781 45.7139 54.7959 45.4291C54.8791 45.2139 55.1918 44.7595 55.7331 44.0651C56.0178 43.6972 56.2433 43.4022 56.4099 43.1801C57.611 41.5833 58.1317 40.5629 57.9719 40.1186L57.9099 40.0148C57.8682 39.9522 57.7606 39.895 57.5872 39.8429C57.4135 39.7908 57.1914 39.7822 56.9206 39.8169L53.9217 39.8376C53.8731 39.8204 53.8037 39.822 53.7134 39.8429C53.6231 39.8638 53.5779 39.8742 53.5779 39.8742L53.5257 39.9003L53.4843 39.9316C53.4496 39.9523 53.4114 39.9888 53.3697 40.0409C53.3282 40.0928 53.2936 40.1537 53.2658 40.2231C52.9393 41.0631 52.5681 41.8441 52.1515 42.566C51.8946 42.9965 51.6587 43.3696 51.4433 43.6855C51.2281 44.0012 51.0476 44.2339 50.9019 44.383C50.756 44.5323 50.6244 44.6519 50.5061 44.7422C50.3881 44.8326 50.298 44.8708 50.2355 44.8568C50.173 44.8429 50.1141 44.829 50.0583 44.8152C49.9612 44.7526 49.8831 44.6676 49.8242 44.56C49.765 44.4524 49.7252 44.317 49.7044 44.1539C49.6836 43.9906 49.6714 43.8502 49.6679 43.7321C49.6646 43.6142 49.6661 43.4474 49.6732 43.2322C49.6804 43.017 49.6836 42.8713 49.6836 42.7949C49.6836 42.5311 49.6888 42.2447 49.6991 41.9358C49.7096 41.6269 49.7181 41.3821 49.7252 41.2018C49.7323 41.0213 49.7356 40.8303 49.7356 40.629C49.7356 40.4277 49.7233 40.2698 49.6991 40.1552C49.6752 40.0407 49.6385 39.9296 49.5901 39.8219C49.5414 39.7143 49.4701 39.6311 49.3766 39.572C49.2829 39.513 49.1664 39.4662 49.0278 39.4314C48.6598 39.3481 48.1912 39.3031 47.6219 39.2961C46.3307 39.2822 45.501 39.3656 45.1331 39.5461C44.9873 39.6223 44.8554 39.7265 44.7375 39.8584C44.6125 40.0111 44.595 40.0945 44.6853 40.1082C45.1019 40.1706 45.3968 40.3199 45.5703 40.5559L45.6329 40.681C45.6816 40.7712 45.7301 40.931 45.7788 41.16C45.8273 41.3891 45.8586 41.6424 45.8724 41.92C45.9071 42.4269 45.9071 42.8607 45.8724 43.2217C45.8377 43.5827 45.8048 43.8638 45.7735 44.0652C45.7422 44.2665 45.6953 44.4296 45.6329 44.5546C45.5703 44.6795 45.5287 44.7559 45.5079 44.7836C45.487 44.8113 45.4697 44.8288 45.4559 44.8357C45.3657 44.8702 45.2718 44.8878 45.1747 44.8878C45.0774 44.8878 44.9595 44.8392 44.8207 44.742C44.6819 44.6447 44.5378 44.5112 44.3886 44.341C44.2393 44.1709 44.0709 43.9331 43.8834 43.6277C43.6961 43.3223 43.5017 42.9613 43.3003 42.5448L43.1338 42.2427C43.0296 42.0484 42.8874 41.7655 42.7069 41.3941C42.5263 41.0227 42.3666 40.6633 42.2279 40.3162C42.1724 40.1705 42.089 40.0595 41.978 39.9831L41.9259 39.9518C41.8912 39.924 41.8356 39.8946 41.7593 39.8632C41.6829 39.8319 41.6032 39.8094 41.5198 39.7956L38.6666 39.8163C38.375 39.8163 38.1772 39.8824 38.073 40.0143L38.0313 40.0767C38.0105 40.1115 38 40.167 38 40.2434C38 40.3198 38.0208 40.4135 38.0625 40.5245C38.479 41.5034 38.932 42.4475 39.4214 43.3569C39.9108 44.2663 40.336 44.9989 40.6969 45.5539C41.0579 46.1093 41.4258 46.6336 41.8007 47.1263C42.1756 47.6192 42.4238 47.9351 42.5452 48.0739C42.6668 48.2129 42.7623 48.3169 42.8317 48.3863L43.092 48.6362C43.2586 48.8028 43.5033 49.0024 43.8261 49.2349C44.149 49.4676 44.5065 49.6966 44.8987 49.9224C45.291 50.1478 45.7474 50.3318 46.2681 50.4741C46.7887 50.6165 47.2955 50.6737 47.7884 50.6461H48.986C49.2288 50.6251 49.4128 50.5487 49.5379 50.4169L49.5793 50.3647C49.6072 50.3233 49.6333 50.2589 49.6573 50.1723C49.6817 50.0855 49.6938 49.9899 49.6938 49.886C49.6867 49.5875 49.7094 49.3185 49.7614 49.079C49.8133 48.8396 49.8724 48.6591 49.9386 48.5376C50.0047 48.4161 50.0793 48.3136 50.1624 48.2306C50.2456 48.1473 50.3049 48.0968 50.3397 48.0795C50.3743 48.062 50.4019 48.0502 50.4227 48.043C50.5893 47.9875 50.7854 48.0413 51.0112 48.2046C51.2369 48.3677 51.4486 48.5692 51.6465 48.8086C51.8444 49.0482 52.0821 49.317 52.3597 49.6155C52.6376 49.9141 52.8805 50.136 53.0886 50.282L53.2968 50.4069C53.4359 50.4903 53.6164 50.5667 53.8386 50.6361C54.0604 50.7055 54.2547 50.7228 54.4215 50.6881L57.0872 50.6466C57.3509 50.6466 57.556 50.6029 57.7015 50.5163C57.8474 50.4295 57.934 50.3339 57.9619 50.2299C57.9898 50.1258 57.9913 50.0077 57.9672 49.8757C57.9425 49.744 57.9182 49.6519 57.894 49.5999Z" fill="#4875A5"/>
</g>
<defs>
<filter id="filter0_d_16_189" x="0" y="0" width="97" height="97" filterUnits="userSpaceOnUse" color-interpolation-filters="sRGB">
<feFlood flood-opacity="0" result="BackgroundImageFix"/>
<feColorMatrix in="SourceAlpha" type="matrix" values="0 0 0 0 0 0 0 0 0 0 0 0 0 0 0 0 0 0 127 0" result="hardAlpha"/>
<feOffset dy="4"/>
<feGaussianBlur stdDeviation="15"/>
<feColorMatrix type="matrix" values="0 0 0 0 0.905551 0 0 0 0 0.908439 0 0 0 0 0.925764 0 0 0 1 0"/>
<feBlend mode="normal" in2="BackgroundImageFix" result="effect1_dropShadow_16_189"/>
<feBlend mode="normal" in="SourceGraphic" in2="effect1_dropShadow_16_189" result="shape"/>
</filter>
<clipPath id="clip0_16_189">
<rect width="20" height="20" fill="white" transform="translate(38 35)"/>
</clipPath>
</defs>
</svg>
