<svg width="95" height="97" viewBox="0 0 95 97" fill="none" xmlns="http://www.w3.org/2000/svg">
<g filter="url(#filter0_d_4224_81)">
<rect x="30" y="26" width="34.0543" height="37" rx="9" fill="white"/>
</g>
<g clip-path="url(#clip0_4224_81)">
<path d="M55.6732 49.5999C55.6509 49.5477 55.6302 49.5044 55.6109 49.4697C55.2915 48.8447 54.6812 48.0776 53.7803 47.1682L53.7613 47.1474L53.7517 47.1372L53.7421 47.1267H53.7324C53.3236 46.7032 53.0646 46.4185 52.9562 46.2727C52.7578 45.995 52.7134 45.7139 52.8218 45.4291C52.8984 45.2139 53.1862 44.7594 53.6844 44.0651C53.9465 43.6971 54.154 43.4022 54.3073 43.18C55.4127 41.5833 55.892 40.5629 55.745 40.1186L55.6879 40.0147C55.6495 39.9522 55.5505 39.895 55.3909 39.8429C55.231 39.7908 55.0266 39.7822 54.7774 39.8169L52.0172 39.8376C51.9725 39.8204 51.9086 39.822 51.8254 39.8429C51.7424 39.8637 51.7008 39.8742 51.7008 39.8742L51.6528 39.9003L51.6146 39.9316C51.5827 39.9523 51.5475 39.9888 51.5092 40.0408C51.471 40.0927 51.4391 40.1537 51.4136 40.2231C51.113 41.0631 50.7714 41.844 50.3879 42.566C50.1515 42.9965 49.9344 43.3695 49.7361 43.6854C49.5381 44.0012 49.3719 44.2339 49.2379 44.383C49.1036 44.5323 48.9824 44.6519 48.8736 44.7422C48.7649 44.8326 48.682 44.8708 48.6245 44.8568C48.567 44.8429 48.5127 44.829 48.4614 44.8151C48.372 44.7526 48.3001 44.6676 48.2459 44.56C48.1915 44.4524 48.1548 44.317 48.1356 44.1538C48.1166 43.9906 48.1053 43.8502 48.1021 43.7321C48.0991 43.6142 48.1004 43.4474 48.1069 43.2322C48.1136 43.0169 48.1166 42.8713 48.1166 42.7949C48.1166 42.531 48.1213 42.2447 48.1308 41.9358C48.1405 41.6269 48.1483 41.3821 48.1548 41.2018C48.1613 41.0213 48.1644 40.8303 48.1644 40.629C48.1644 40.4276 48.1531 40.2697 48.1308 40.1551C48.1088 40.0407 48.075 39.9296 48.0304 39.8219C47.9856 39.7143 47.92 39.6311 47.8339 39.572C47.7477 39.513 47.6405 39.4661 47.5129 39.4314C47.1742 39.3481 46.743 39.303 46.2189 39.296C45.0305 39.2822 44.267 39.3656 43.9283 39.5461C43.7941 39.6223 43.6727 39.7265 43.5642 39.8583C43.4491 40.0111 43.4331 40.0945 43.5161 40.1082C43.8995 40.1706 44.171 40.3199 44.3307 40.5559L44.3883 40.681C44.4331 40.7712 44.4778 40.931 44.5226 41.16C44.5672 41.389 44.5961 41.6424 44.6088 41.92C44.6406 42.4268 44.6406 42.8607 44.6088 43.2216C44.5768 43.5827 44.5466 43.8638 44.5177 44.0651C44.4889 44.2665 44.4458 44.4296 44.3883 44.5545C44.3307 44.6795 44.2924 44.7559 44.2732 44.7836C44.2541 44.8113 44.2381 44.8288 44.2254 44.8356C44.1424 44.8702 44.056 44.8878 43.9666 44.8878C43.8771 44.8878 43.7685 44.8392 43.6407 44.7419C43.513 44.6447 43.3804 44.5111 43.243 44.341C43.1056 44.1709 42.9507 43.9331 42.7781 43.6277C42.6057 43.3223 42.4268 42.9613 42.2415 42.5448L42.0881 42.2427C41.9923 42.0484 41.8614 41.7654 41.6953 41.3941C41.529 41.0226 41.3821 40.6633 41.2544 40.3162C41.2033 40.1704 41.1266 40.0594 41.0244 39.9831L40.9764 39.9517C40.9445 39.924 40.8933 39.8946 40.8231 39.8632C40.7528 39.8319 40.6794 39.8094 40.6027 39.7956L37.9766 39.8163C37.7083 39.8163 37.5262 39.8824 37.4303 40.0143L37.3919 40.0767C37.3728 40.1115 37.3631 40.167 37.3631 40.2434C37.3631 40.3197 37.3823 40.4135 37.4206 40.5245C37.804 41.5034 38.2209 42.4475 38.6713 43.3569C39.1217 44.2663 39.5131 44.9988 39.8453 45.5539C40.1775 46.1093 40.5162 46.6335 40.8612 47.1263C41.2063 47.6192 41.4347 47.9351 41.5464 48.0739C41.6583 48.2129 41.7462 48.3169 41.8101 48.3863L42.0497 48.6361C42.2031 48.8028 42.4283 49.0024 42.7254 49.2349C43.0226 49.4675 43.3516 49.6966 43.7126 49.9224C44.0736 50.1478 44.4937 50.3318 44.9729 50.4741C45.4521 50.6165 45.9185 50.6736 46.3722 50.6461H47.4744C47.698 50.6251 47.8673 50.5487 47.9824 50.4169L48.0206 50.3647C48.0462 50.3233 48.0702 50.2589 48.0924 50.1723C48.1148 50.0855 48.1259 49.9899 48.1259 49.8859C48.1194 49.5875 48.1403 49.3185 48.1881 49.079C48.2359 48.8396 48.2903 48.6591 48.3512 48.5376C48.4121 48.4161 48.4808 48.3136 48.5572 48.2305C48.6338 48.1473 48.6884 48.0968 48.7204 48.0795C48.7522 48.062 48.7776 48.0501 48.7968 48.043C48.9501 47.9875 49.1306 48.0413 49.3385 48.2046C49.5462 48.3677 49.741 48.5691 49.9232 48.8085C50.1053 49.0482 50.3241 49.317 50.5796 49.6155C50.8353 49.914 51.0589 50.136 51.2505 50.282L51.4421 50.4069C51.5701 50.4903 51.7362 50.5667 51.9407 50.6361C52.1448 50.7054 52.3237 50.7228 52.4773 50.6881L54.9307 50.6465C55.1734 50.6465 55.3622 50.6029 55.4961 50.5163C55.6303 50.4295 55.7101 50.3339 55.7358 50.2299C55.7614 50.1258 55.7628 50.0077 55.7406 49.8757C55.7179 49.744 55.6955 49.6519 55.6732 49.5999Z" fill="#3A3C48"/>
</g>
<defs>
<filter id="filter0_d_4224_81" x="0" y="0" width="94.0543" height="97" filterUnits="userSpaceOnUse" color-interpolation-filters="sRGB">
<feFlood flood-opacity="0" result="BackgroundImageFix"/>
<feColorMatrix in="SourceAlpha" type="matrix" values="0 0 0 0 0 0 0 0 0 0 0 0 0 0 0 0 0 0 127 0" result="hardAlpha"/>
<feOffset dy="4"/>
<feGaussianBlur stdDeviation="15"/>
<feColorMatrix type="matrix" values="0 0 0 0 0.905551 0 0 0 0 0.908439 0 0 0 0 0.925764 0 0 0 1 0"/>
<feBlend mode="normal" in2="BackgroundImageFix" result="effect1_dropShadow_4224_81"/>
<feBlend mode="normal" in="SourceGraphic" in2="effect1_dropShadow_4224_81" result="shape"/>
</filter>
<clipPath id="clip0_4224_81">
<rect width="18.4077" height="20" fill="white" transform="translate(37.3631 35)"/>
</clipPath>
</defs>
</svg>
