<svg width="97" height="97" viewBox="0 0 97 97" fill="none" xmlns="http://www.w3.org/2000/svg">
<g filter="url(#filter0_d_16_200)">
<rect x="30" y="26" width="37" height="37" rx="9" fill="white"/>
</g>
<path d="M58.1522 39.5154C57.611 38.5574 57.0238 38.3812 55.828 38.3142C54.6335 38.2335 51.6298 38.2 49.0275 38.2C46.4203 38.2 43.4154 38.2335 42.2221 38.3129C41.0288 38.3812 40.4403 38.5561 39.8942 39.5154C39.3368 40.4721 39.05 42.12 39.05 45.0213C39.05 45.0238 39.05 45.025 39.05 45.025C39.05 45.0275 39.05 45.0287 39.05 45.0287V45.0312C39.05 47.92 39.3368 49.5804 39.8942 50.5272C40.4403 51.4852 41.0276 51.6589 42.2209 51.7396C43.4154 51.8091 46.4203 51.85 49.0275 51.85C51.6298 51.85 54.6335 51.8091 55.8292 51.7408C57.025 51.6601 57.6123 51.4864 58.1534 50.5284C58.7158 49.5816 59 47.9213 59 45.0324C59 45.0324 59 45.0287 59 45.0262C59 45.0262 59 45.0238 59 45.0225C59 42.12 58.7158 40.4721 58.1522 39.5154ZM46.5313 48.7477V41.3023L52.7657 45.025L46.5313 48.7477Z" fill="#DD392B"/>
<defs>
<filter id="filter0_d_16_200" x="0" y="0" width="97" height="97" filterUnits="userSpaceOnUse" color-interpolation-filters="sRGB">
<feFlood flood-opacity="0" result="BackgroundImageFix"/>
<feColorMatrix in="SourceAlpha" type="matrix" values="0 0 0 0 0 0 0 0 0 0 0 0 0 0 0 0 0 0 127 0" result="hardAlpha"/>
<feOffset dy="4"/>
<feGaussianBlur stdDeviation="15"/>
<feColorMatrix type="matrix" values="0 0 0 0 0.905551 0 0 0 0 0.908439 0 0 0 0 0.925764 0 0 0 1 0"/>
<feBlend mode="normal" in2="BackgroundImageFix" result="effect1_dropShadow_16_200"/>
<feBlend mode="normal" in="SourceGraphic" in2="effect1_dropShadow_16_200" result="shape"/>
</filter>
</defs>
</svg>
